<?xml version="1.0" standalone="no"?>
<!DOCTYPE svg PUBLIC "-//W3C//DTD SVG 20010904//EN"
 "http://www.w3.org/TR/2001/REC-SVG-20010904/DTD/svg10.dtd">
<svg version="1.0" xmlns="http://www.w3.org/2000/svg"
 width="494.000000pt" height="494.000000pt" viewBox="0 0 494.000000 494.000000"
 preserveAspectRatio="xMidYMid meet">
<g transform="translate(0.000000,494.000000) scale(0.100000,-0.100000)"
fill="#000000" stroke="none">
<path d="M1590 4610 c-107 -3 -203 -9 -213 -14 -21 -10 -42 -48 -52 -94 -6
-28 -10 -32 -28 -26 -63 20 -113 -2 -186 -81 l-51 -57 0 -586 0 -585 70 -70
69 -69 60 4 61 4 6 -35 c18 -98 14 -98 477 -106 347 -7 387 -9 382 -23 -13
-35 -6 -181 11 -213 15 -30 15 -34 0 -60 -23 -40 -24 -350 -1 -385 19 -30 19
-87 0 -125 -13 -23 -16 -68 -16 -219 0 -151 3 -196 16 -219 19 -38 19 -95 0
-125 -23 -34 -23 -408 0 -442 20 -31 20 -152 0 -178 -18 -24 -21 -177 -4 -209
10 -18 8 -23 -11 -36 -96 -67 -135 -133 -118 -200 15 -56 90 -193 118 -213 24
-17 49 -19 284 -19 217 0 262 3 282 16 33 22 124 205 124 250 0 60 -32 103
-121 166 -18 13 -20 18 -10 36 6 12 11 58 11 103 0 76 -10 117 -33 131 -5 4 0
19 12 36 20 27 22 41 22 198 0 154 -2 172 -21 197 -26 35 -25 72 0 114 19 30
21 49 21 225 0 179 -1 195 -20 220 -27 36 -27 82 -1 117 19 26 21 42 21 222 0
180 -1 196 -20 221 -30 40 -29 139 0 178 19 26 21 39 17 129 l-4 99 386 8
c283 5 394 11 417 20 27 11 35 23 48 70 15 50 19 55 38 49 37 -12 76 -6 112
16 42 26 114 106 121 134 2 12 3 279 2 593 l-3 573 -61 61 c-64 64 -103 81
-161 69 -31 -7 -32 -6 -43 41 -20 83 -21 83 -274 90 -267 8 -1464 7 -1736 -1z"/>
<path d="M90 3343 c0 -33 10 -53 51 -109 128 -173 225 -377 260 -549 26 -126
26 -348 -1 -468 -42 -192 -146 -393 -277 -538 -33 -36 -45 -81 -30 -107 4 -5
31 -16 59 -22 434 -103 724 -399 818 -835 19 -91 39 -289 40 -406 0 -41 3 -47
24 -51 14 -3 54 8 93 24 214 92 375 133 603 154 168 15 180 20 180 75 0 34
-18 53 -84 86 -216 108 -392 328 -458 571 -30 110 -29 324 1 436 55 207 194
400 373 519 31 20 58 43 61 49 7 21 -10 55 -80 160 -217 325 -465 574 -754
753 -262 163 -579 280 -791 292 l-88 6 0 -40z"/>
<path d="M4670 3373 c-154 -27 -359 -98 -524 -180 -386 -194 -685 -465 -949
-861 -70 -105 -87 -139 -80 -160 3 -6 30 -29 61 -49 179 -119 318 -312 373
-519 30 -112 31 -326 1 -436 -66 -243 -242 -463 -458 -571 -66 -33 -84 -52
-84 -86 0 -55 12 -60 180 -75 228 -21 389 -62 603 -154 39 -16 79 -27 93 -24
21 4 24 10 24 46 1 115 22 339 41 420 100 435 387 724 817 826 28 6 55 17 59
22 15 26 3 71 -30 107 -131 145 -235 346 -277 538 -27 120 -27 342 -1 468 35
172 132 376 260 549 41 55 51 77 51 107 l0 39 -67 -1 c-38 -1 -79 -4 -93 -6z"/>
</g>
</svg>
